<svg xmlns="http://www.w3.org/2000/svg" width="69.931" height="26.279" viewBox="0 0 69.931 26.279"><defs><style>.a{fill:#d6dadd;}.b{fill:#fcf47e;}.c{fill:#ed1c24;}.d{fill:#0e2e49;}.e{fill:#333;}.f{fill:#b3b3b3;}.g{fill:#fff;}.h{fill:#acd2e2;}.i{fill:#2b6183;}</style></defs><g transform="translate(-55 -1087.925)"><ellipse class="a" cx="30.959" cy="0.728" rx="30.959" ry="0.728" transform="translate(60.099 1112.747)"/><g transform="translate(55 1087.925)"><path class="b" d="M1.093,0h0A1.093,1.093,0,0,1,2.185,1.093V3.278A1.093,1.093,0,0,1,1.093,4.371h0A1.093,1.093,0,0,1,0,3.278V1.093A1.093,1.093,0,0,1,1.093,0Z" transform="translate(67.746 13.167)"/><path class="c" d="M337.083,285.439a1.32,1.32,0,0,0,.966,1.6l1.281.316a1.321,1.321,0,0,0,1.6-.966h0a1.32,1.32,0,0,0-.966-1.6l-1.282-.316a1.321,1.321,0,0,0-1.6.966Z" transform="translate(-335.648 -270.642)"/><path class="d" d="M84.318,224.942h17.089c6.029,0,10.813,6.489,12.587,8.344h13.45a5.062,5.062,0,0,1,5.152,5.15v7.134H66C70.455,223.551,82.875,224.942,84.318,224.942Z" transform="translate(-64.457 -224.925)"/><rect width="69.931" height="2.914" rx="1.457" transform="translate(0 18.266)"/><g transform="translate(49.997 13.982)"><path class="e" d="M94.7,291a5.745,5.745,0,1,0,5.746-5.745A5.745,5.745,0,0,0,94.7,291Z" transform="translate(-94.7 -285.254)"/><path class="f" d="M102.825,297.243a3.862,3.862,0,1,0,3.862-3.861A3.862,3.862,0,0,0,102.825,297.243Z" transform="translate(-100.941 -291.498)"/><path class="g" d="M106.78,300.282a2.945,2.945,0,1,0,2.946-2.945A2.946,2.946,0,0,0,106.78,300.282Z" transform="translate(-103.98 -294.537)"/></g><g transform="translate(7.751 13.982)"><path class="e" d="M276.978,291a5.745,5.745,0,1,0,5.746-5.745A5.745,5.745,0,0,0,276.978,291Z" transform="translate(-276.978 -285.254)"/><path class="f" d="M285.1,297.243a3.862,3.862,0,1,0,3.863-3.861A3.863,3.863,0,0,0,285.1,297.243Z" transform="translate(-283.22 -291.498)"/><path class="g" d="M289.059,300.282A2.945,2.945,0,1,0,292,297.337,2.946,2.946,0,0,0,289.059,300.282Z" transform="translate(-286.259 -294.537)"/></g><path class="h" d="M194.87,238.475H156.585s3.961-6.667,10.928-6.667c0,0,12.683-.129,17.318-.129C186.922,231.68,190.763,232.913,194.87,238.475Z" transform="translate(-147.726 -230.114)"/><rect class="i" width="2.185" height="7.285" transform="translate(28.41 1.512)"/><path class="g" d="M.728,0H3.642a.728.728,0,0,1,.728.728v0a.728.728,0,0,1-.728.728H.728A.728.728,0,0,1,0,.728v0A.728.728,0,0,1,.728,0Z" transform="translate(30.595 10.253)"/><path class="g" d="M.728,0H4.371A.728.728,0,0,1,5.1.728v0a.728.728,0,0,1-.728.728H.728A.728.728,0,0,1,0,.728v0A.728.728,0,0,1,.728,0Z" transform="translate(23.31 10.253)"/><path class="g" d="M155,251.941a1.106,1.106,0,0,1,1.128-1l4.221.44a.917.917,0,0,1,.909,1V254a.8.8,0,0,1-.866.9l-4.282-.44a1.008,1.008,0,0,1-1.11-.9Z" transform="translate(-113.746 -244.911)"/></g></g></svg>